# xmcd
#
# Track frame offsets:
#	150
#	16476
#	37431
#	54747
#	74283
#	92421
#	113179
#	129637
#	144886
#	158555
#	168120
#	181831
#
# Disc length: 2598 seconds
#
# Revision: 1
# Processed by: cddbd v1.5.2PL0 Copyright (c) Steve Scherf et al.
# Submitted via: audiograbber 1.83.01
#
DISCID=9c0a240c
DTITLE=Carmel Horan - I know who holds tomorrow
DYEAR=2005
DGENRE=Worship
TTITLE0=You raise me up
TTITLE1=Lord of Knock
TTITLE2=I know who holds tomorrow
TTITLE3=Amazing grace
TTITLE4=Voice of an angel
TTITLE5=The old rugged cross
TTITLE6=Wings of a dove
TTITLE7=Holy is his name
TTITLE8=Lord when you come to the seashore
TTITLE9=There's a place
TTITLE10=You are mine
TTITLE11=Treasure in a field
EXTD=
EXTT0=
EXTT1=
EXTT2=
EXTT3=
EXTT4=
EXTT5=
EXTT6=
EXTT7=
EXTT8=
EXTT9=
EXTT10=
EXTT11=
PLAYORDER=
